# Blender 3.2.0
# www.blender.org
mtllib ControlStand.mtl
o Plane
v 0.700000 0.900000 0.900000
v 0.700000 -1.100000 0.900000
v 0.700000 0.900000 -1.100000
v 0.700000 -1.100000 -1.100000
v 1.000000 0.900000 0.000000
v 1.000000 -1.100000 0.000000
v 0.200000 0.900000 0.900000
v 0.200000 -1.100000 0.900000
v 0.200000 0.900000 -1.100000
v 0.200000 -1.100000 -1.100000
v -0.100000 0.900000 -0.100000
v -0.100000 -1.100000 -0.100000
v 0.900000 1.300000 -1.100000
v 0.900000 1.300000 0.900000
v 1.200000 1.300000 0.000000
v 0.000000 1.300000 0.900000
v 0.000000 1.300000 -1.100000
v -0.300000 1.300000 -0.100000
v 0.700000 1.300000 -1.300000
v 0.200000 1.300000 -1.300000
v 0.700000 1.300000 1.100000
v 0.200000 1.300000 1.100000
v -0.100000 3.300000 -1.100000
v -0.100000 3.300000 0.900000
v 0.200000 3.300000 0.000000
v -1.000000 3.300000 0.900000
v -1.000000 3.300000 -1.100000
v -1.300000 3.300000 -0.100000
v -0.300000 3.300000 -1.300000
v -0.800000 3.300000 -1.300000
v -0.300000 3.300000 1.100000
v -0.800000 3.300000 1.100000
v -0.200000 3.600000 -1.000000
v -0.200000 3.600000 0.800000
v 0.000000 3.600000 0.000000
v -0.900000 3.600000 0.800000
v -0.900000 3.600000 -1.000000
v -1.100000 3.600000 -0.100000
vn 0.9487 -0.0000 0.3162
vn 0.9648 -0.0000 -0.2631
vn -0.0000 -0.0000 -1.0000
vn -0.0000 -0.0000 1.0000
vn -0.9578 -0.0000 -0.2873
vn -0.9578 -0.0000 0.2873
vn 0.8689 -0.4345 -0.2370
vn 0.8571 -0.4286 0.2857
vn -0.8639 -0.4319 -0.2592
vn -0.8639 -0.4319 0.2592
vn 0.6667 -0.3333 -0.6667
vn -0.6667 -0.3333 -0.6667
vn -0.0000 -0.4472 0.8944
vn 0.6667 -0.3333 0.6667
vn -0.6667 -0.3333 0.6667
vn -0.0000 -0.4472 -0.8944
vn 0.8689 0.4345 -0.2370
vn 0.8571 0.4286 0.2857
vn 0.6667 0.3333 -0.6667
vn 0.6667 0.3333 0.6667
vn -0.0000 0.7071 -0.7071
vn 0.8488 0.4660 0.2497
vn 0.6396 0.4264 -0.6396
vn -0.0000 0.7071 0.7071
vn -0.8559 0.4655 0.2252
vn -0.6396 0.4264 -0.6396
vn -0.6396 0.4264 0.6396
vn -0.8559 0.4655 -0.2252
vn 0.8613 0.4648 -0.2051
vn 0.6396 0.4264 0.6396
vn -0.0000 -1.0000 -0.0000
vn -0.0000 1.0000 -0.0000
vt 0.000000 0.000000
vt 1.000000 0.000000
vt 0.000000 0.000000
vt 0.000000 0.000000
vt 0.000000 1.000000
vt 1.000000 1.000000
vt 0.000000 0.000000
vt 0.000000 0.500000
vt 1.000000 0.500000
vt 0.000000 0.000000
vt 0.000000 0.000000
vt 1.000000 0.000000
vt 0.000000 0.000000
vt 0.000000 0.000000
vt 0.000000 1.000000
vt 1.000000 1.000000
vt 0.000000 0.000000
vt 0.000000 1.000000
vt 0.000000 0.000000
vt 1.000000 1.000000
vt 1.000000 0.000000
vt 0.000000 0.000000
vt 0.000000 1.000000
vt 0.000000 0.000000
vt 0.000000 0.000000
vt 0.000000 0.500000
vt 0.000000 0.000000
vt 0.000000 0.000000
vt 0.000000 1.000000
vt 0.000000 0.000000
vt 0.000000 1.000000
vt 0.000000 0.000000
vt 0.000000 1.000000
vt 0.000000 0.000000
vt 0.000000 1.000000
vt 0.000000 0.000000
vt 0.000000 0.000000
vt 0.000000 0.000000
vt 0.000000 1.000000
vt 0.000000 0.000000
vt 0.000000 0.500000
vt 0.000000 0.000000
vt 0.000000 0.000000
vt 0.000000 1.000000
vt 0.000000 0.000000
vt 0.000000 1.000000
vt 0.000000 1.000000
vt 0.000000 0.000000
vt 0.000000 1.000000
vt 0.000000 0.000000
vt 0.000000 0.000000
vt 0.000000 0.000000
vt 0.000000 1.000000
vt 0.000000 0.000000
vt 0.000000 0.000000
vt 0.000000 0.500000
vt 0.000000 0.000000
vt 0.000000 0.000000
vt 0.000000 1.000000
vt 0.000000 0.000000
vt 0.000000 1.000000
vt 0.000000 0.000000
s 0
f 1/1/1 2/2/1 6/9/1 5/8/1
f 5/8/2 6/9/2 4/6/2 3/5/2
f 3/5/3 4/6/3 10/16/3 9/15/3
f 2/2/4 1/1/4 7/11/4 8/12/4
f 9/15/5 10/16/5 12/20/5 11/18/5
f 8/12/6 7/11/6 11/19/6 12/21/6
f 5/8/7 3/5/7 13/23/7 15/26/7
f 1/1/8 5/8/8 15/26/8 14/25/8
f 9/15/9 11/18/9 18/31/9 17/29/9
f 11/19/10 7/11/10 16/27/10 18/30/10
f 13/24/11 3/4/11 19/32/11
f 20/34/12 9/14/12 17/28/12
f 7/11/13 1/1/13 21/36/13 22/37/13
f 14/25/14 21/36/14 1/1/14
f 7/11/15 22/37/15 16/27/15
f 9/15/16 20/35/16 19/33/16 3/5/16
f 15/26/17 13/23/17 23/39/17 25/41/17
f 14/25/18 15/26/18 25/41/18 24/40/18
f 13/24/19 19/32/19 29/48/19 23/38/19
f 18/30/10 16/27/10 26/42/10 28/45/10
f 20/34/12 17/28/12 27/43/12 30/50/12
f 16/27/15 22/37/15 32/52/15 26/42/15
f 17/29/9 18/31/9 28/46/9 27/44/9
f 22/37/4 21/36/4 31/51/4 32/52/4
f 19/33/3 20/35/3 30/49/3 29/47/3
f 21/36/20 14/25/20 24/40/20 31/51/20
f 29/47/21 30/49/21 37/59/21 33/53/21
f 24/40/22 25/41/22 35/56/22 34/55/22
f 23/38/23 29/48/23 33/54/23
f 32/52/24 31/51/24 34/55/24 36/58/24
f 28/45/25 26/42/25 36/58/25 38/62/25
f 30/50/26 27/43/26 37/60/26
f 26/42/27 32/52/27 36/58/27
f 27/44/28 28/46/28 38/61/28 37/59/28
f 25/41/29 23/39/29 33/53/29 35/56/29
f 31/51/30 24/40/30 34/55/30
f 12/22/31 4/7/31 6/10/31
f 38/62/32 36/58/32 35/57/32
f 34/55/32 35/57/32 36/58/32
f 33/54/32 37/60/32 38/62/32
f 33/54/32 38/62/32 35/57/32
f 12/22/31 10/17/31 4/7/31
f 6/10/31 2/3/31 8/13/31
f 12/22/31 6/10/31 8/13/31
