# Blender 3.2.0
# www.blender.org
mtllib RadarPanel.mtl
o Radar
v 0.448853 1.500000 -2.393214
v 0.448853 -1.500000 -2.393214
v 0.448853 1.500000 1.284582
v 0.448853 -1.500000 0.406786
v 0.148853 1.250000 1.484582
v 0.148853 -1.250000 0.606786
v 0.148853 1.250000 -2.593214
v 0.148853 -1.250000 -2.593214
v 0.148853 1.700000 -1.943214
v 0.148853 1.700000 1.034582
v 0.148853 -1.700000 -2.143214
v 0.148853 -1.700000 0.156786
v 0.448853 -1.380000 0.106786
v -0.051147 1.250000 1.484582
v -0.051147 -1.250000 0.606786
v -0.051147 1.250000 -2.593214
v -0.051147 -1.250000 -2.593214
v -0.051147 1.700000 -1.943214
v -0.051147 1.700000 1.034582
v -0.051147 -1.700000 -2.143214
v -0.051147 -1.700000 0.156786
v -0.350195 1.512785 1.208488
v -0.350195 1.512785 -2.317120
v -0.308604 -1.512785 -2.317120
v -0.299268 -1.512785 0.330691
v 0.448853 -1.200000 0.306786
v -0.324732 0.100000 1.208488
v -0.051147 0.100000 1.484582
v 0.148853 0.100000 1.484582
v 0.448853 0.100000 1.284582
v -0.051147 -0.046924 1.284582
v 0.150000 -0.050000 1.284582
v 0.450000 0.190000 0.306786
v 0.450000 0.090000 0.406786
v 0.150000 -0.050000 0.606786
v -0.051147 -0.040386 0.606786
v -0.320000 0.100000 0.326786
v 0.448853 -1.380000 -2.093215
v 0.448853 -1.380000 0.106786
v 0.448853 1.380000 -2.093215
v 0.448853 1.380000 0.984582
v 0.448853 -1.200000 -2.293214
v 0.448853 1.190000 -2.293214
v 0.448853 -1.200000 0.306786
v 0.448853 1.190000 1.184582
v 0.448853 0.395000 1.184582
v 0.450000 0.190000 0.306786
v 0.449427 0.192500 0.984582
v 0.248853 -1.380000 -2.093215
v 0.248853 -1.380000 0.106786
v 0.248853 1.380000 -2.093215
v 0.248853 1.380000 0.984582
v 0.248853 -1.200000 -2.293214
v 0.248853 1.190000 -2.293214
v 0.248853 -1.200000 0.306786
v 0.248853 1.190000 1.184582
v 0.248853 0.395000 1.184582
v 0.250000 0.190000 0.306786
v 0.249427 0.192500 0.984582
v 0.442188 1.494452 -2.388236
v 0.442040 -1.494824 -2.388038
v 0.442036 1.494827 1.279409
v 0.442041 -1.494822 0.401610
v 0.146809 1.246960 1.475277
v 0.146820 -1.246958 0.597479
v 0.146678 1.246329 -2.584170
v 0.146817 -1.246959 -2.583907
v 0.146554 1.690504 -1.941081
v 0.146809 1.690695 1.031542
v 0.146817 -1.690693 -2.140174
v 0.146819 -1.690693 0.153745
v 0.438853 -1.380000 0.106786
v -0.048082 1.246988 1.475552
v -0.047821 -1.247016 0.597839
v -0.047973 1.246340 -2.584465
v -0.047978 -1.247015 -2.584211
v -0.048798 1.690529 -1.941025
v -0.048963 1.690770 1.031414
v -0.048636 -1.690834 -2.140102
v -0.048622 -1.690834 0.153686
v -0.342931 1.507681 1.203885
v -0.343133 1.507316 -2.312624
v -0.301412 -1.507633 -2.312459
v -0.292073 -1.507615 0.326054
v 0.438853 -1.199997 0.306792
v -0.316413 0.104543 1.205299
v -0.047841 0.104013 1.476040
v 0.146338 0.104119 1.475824
v 0.440907 0.104545 1.280558
v -0.048531 -0.037769 1.281524
v 0.148002 -0.040665 1.281606
v 0.440000 0.190004 0.306784
v 0.440266 0.091558 0.405106
v 0.146197 -0.043237 0.600477
v -0.046317 -0.033461 0.601427
v -0.310703 0.102502 0.324084
v 0.440880 -1.385635 -2.095377
v 0.441544 -1.386371 0.109231
v 0.440845 1.385562 -2.095435
v 0.440845 1.385562 0.986803
v 0.440742 -1.202380 -2.298558
v 0.440778 1.192327 -2.298634
v 0.441471 -1.202744 0.312948
v 0.440778 1.192327 1.190002
v 0.440820 0.392734 1.190089
v 0.441836 0.185923 0.310876
v 0.441377 0.187025 0.986869
v 0.242507 -1.387215 -2.095983
v 0.242507 -1.387215 0.109555
v 0.242529 1.387194 -2.096087
v 0.242529 1.387194 0.987456
v 0.242593 -1.203173 -2.300338
v 0.242571 1.193069 -2.300364
v 0.242593 -1.203174 0.313909
v 0.242572 1.193069 1.191733
v 0.242543 0.392055 1.191760
v 0.244227 0.184237 0.312570
v 0.243128 0.185340 0.987593
vn -0.7043 -0.0053 -0.7098
vn 1.0000 -0.0000 -0.0000
vn 0.5547 -0.0000 -0.8321
vn 0.5547 0.8321 -0.0000
vn 0.5547 -0.8321 -0.0000
vn -0.0000 -0.0000 -1.0000
vn -0.0000 1.0000 -0.0000
vn 0.5546 -0.0005 0.8321
vn -0.0000 -1.0000 -0.0000
vn -0.0328 0.8217 -0.5689
vn -0.0000 -0.0000 1.0000
vn -0.0448 0.7064 0.7064
vn -0.0472 -0.7063 0.7063
vn -0.0467 -0.7063 -0.7063
vn -0.5952 -0.8036 0.0011
vn -0.9999 -0.0159 0.0022
vn -0.5306 0.8476 -0.0000
vn -0.6958 -0.0069 0.7182
vn -0.5129 -0.6918 0.5082
vn 0.5547 -0.0000 0.8321
vn 1.0000 -0.0008 -0.0015
vn -0.0062 -0.8029 0.5960
vn 0.3722 -0.7415 0.5583
vn -0.4654 -0.8851 -0.0051
vn -0.0315 -0.9995 -0.0048
vn 0.4375 -0.8992 0.0061
vn -0.0000 0.7433 0.6690
vn -0.7319 -0.0044 0.6814
vn 1.0000 0.0007 0.0021
vn 1.0000 -0.0007 0.0011
vn 1.0000 0.0001 -0.0001
vn -0.0000 0.7027 -0.7115
vn -0.0000 -0.7250 0.6887
vn -0.0000 1.0000 -0.0037
vn -0.0000 -0.7250 -0.6887
vn -0.0000 0.7433 -0.6690
vn 0.7039 0.0054 0.7103
vn -1.0000 -0.0090 -0.0004
vn -0.5527 0.0001 0.8334
vn -0.5527 -0.8334 0.0001
vn -0.5529 0.8333 -0.0000
vn -0.0015 0.0001 1.0000
vn -0.0003 -1.0000 0.0001
vn -0.5529 0.0015 -0.8332
vn -0.0007 1.0000 -0.0000
vn 0.0329 -0.8225 0.5679
vn -0.0013 -0.0005 -1.0000
vn 0.0450 -0.7065 -0.7063
vn -1.0000 -0.0036 -0.0026
vn 0.0475 0.7064 -0.7062
vn 0.0471 0.7064 0.7062
vn 0.5940 0.8045 -0.0011
vn 0.9999 0.0161 -0.0025
vn 0.5285 -0.8489 0.0001
vn 0.6952 0.0068 -0.7188
vn -1.0000 0.0005 0.0074
vn -0.9999 -0.0084 0.0075
vn 0.5125 0.6931 -0.5070
vn -0.5526 -0.0002 -0.8334
vn -0.9998 -0.0002 0.0174
vn -0.9999 0.0116 -0.0000
vn 0.0055 0.8049 -0.5934
vn -0.3704 0.7432 -0.5572
vn 0.4614 0.8872 0.0036
vn 0.0326 0.9995 0.0013
vn -0.4328 0.9014 -0.0083
vn 0.0085 -0.7428 -0.6695
vn -0.0033 0.0027 -1.0000
vn 0.7331 0.0048 -0.6801
vn -1.0000 -0.0009 -0.0018
vn -1.0000 0.0037 -0.0032
vn -0.9999 0.0128 0.0013
vn 0.9208 0.2899 -0.2609
vn 0.9169 -0.0008 -0.3990
vn -1.0000 -0.0001 0.0001
vn 0.0085 -0.7027 0.7114
vn 0.0085 0.7247 -0.6890
vn 0.0086 0.0001 1.0000
vn 0.0085 -1.0000 0.0016
vn 0.0085 0.7247 0.6890
vn 0.0089 -0.0000 -1.0000
vn 0.0082 1.0000 -0.0000
vn 0.0061 -1.0000 -0.0002
vn 0.0067 0.0012 1.0000
vn 0.0045 -0.7429 0.6694
vn -0.9999 -0.0000 -0.0151
vn -1.0000 0.0033 0.0028
vt 0.000000 0.000000
vt 1.000000 0.000000
vt 0.000000 1.000000
vt 1.000000 1.000000
vt 0.000000 1.000000
vt 0.000000 0.000000
vt 1.000000 1.000000
vt 0.000000 0.000000
vt 1.000000 0.000000
vt 0.000000 0.000000
vt 0.000000 1.000000
vt 0.000000 0.000000
vt 1.000000 0.000000
vt 0.000000 0.000000
vt 1.000000 1.000000
vt 1.000000 1.000000
vt 0.000000 1.000000
vt 0.000000 0.000000
vt 0.000000 0.000000
vt 1.000000 1.000000
vt 0.000000 0.000000
vt 1.000000 0.000000
vt 0.000000 0.000000
vt 0.000000 0.000000
vt 0.000000 0.000000
vt 0.000000 1.000000
vt 1.000000 0.000000
vt 0.000000 0.000000
vt 1.000000 1.000000
vt 0.000000 0.000000
vt 0.000000 0.000000
vt 0.000000 0.500000
vt 0.000000 0.000000
vt 0.000000 0.000000
vt 0.000000 0.000000
vt 0.500000 1.000000
vt 0.000000 0.250000
vt 0.000000 0.202977
vt 0.000000 0.000000
vt 0.500000 1.000000
vt 0.500000 1.000000
vt 0.500000 1.000000
vt 0.596635 1.000000
vt 0.000000 0.000000
vt 0.617583 1.000000
vt 0.619643 1.000000
vt 0.421875 1.000000
vt 0.644952 1.000000
vt 0.679465 1.000000
vt 0.676374 1.000000
vt 0.000000 0.000000
vt 0.000000 0.179465
vt 1.000000 0.000000
vt 1.000000 1.000000
vt 0.000000 0.000000
vt 0.000000 1.000000
vt 0.500000 0.000000
vt 0.250000 0.000000
vt 0.500000 1.000000
vt 0.250000 1.000000
vt 0.375000 1.000000
vt 0.421875 1.000000
vt 0.398438 1.000000
vt 1.000000 0.000000
vt 1.000000 1.000000
vt 0.000000 0.000000
vt 0.000000 1.000000
vt 0.500000 0.000000
vt 0.250000 0.000000
vt 0.500000 1.000000
vt 0.250000 1.000000
vt 0.375000 1.000000
vt 0.421875 1.000000
vt 0.398438 1.000000
vt 0.000000 0.000000
vt 1.000000 0.000000
vt 0.000000 1.000000
vt 1.000000 1.000000
vt 0.000000 1.000000
vt 0.000000 0.000000
vt 1.000000 1.000000
vt 0.000000 0.000000
vt 1.000000 0.000000
vt 0.000000 0.000000
vt 0.000000 1.000000
vt 0.000000 0.000000
vt 1.000000 0.000000
vt 0.000000 0.000000
vt 1.000000 1.000000
vt 1.000000 1.000000
vt 0.000000 1.000000
vt 0.000000 0.000000
vt 0.000000 0.000000
vt 1.000000 1.000000
vt 0.000000 0.000000
vt 1.000000 0.000000
vt 0.000000 0.000000
vt 0.000000 0.000000
vt 0.000000 0.000000
vt 0.000000 1.000000
vt 1.000000 0.000000
vt 0.000000 0.000000
vt 1.000000 1.000000
vt 0.000000 0.000000
vt 0.000000 0.000000
vt 0.000000 0.500000
vt 0.000000 0.000000
vt 0.000000 0.000000
vt 0.000000 0.000000
vt 0.500000 1.000000
vt 0.000000 0.250000
vt 0.000000 0.202977
vt 0.000000 0.000000
vt 0.500000 1.000000
vt 0.500000 1.000000
vt 0.500000 1.000000
vt 0.596635 1.000000
vt 0.000000 0.000000
vt 0.617583 1.000000
vt 0.619643 1.000000
vt 0.421875 1.000000
vt 0.644952 1.000000
vt 0.679465 1.000000
vt 0.676374 1.000000
vt 0.000000 0.000000
vt 0.000000 0.179465
vt 1.000000 0.000000
vt 1.000000 1.000000
vt 0.000000 0.000000
vt 0.000000 1.000000
vt 0.500000 0.000000
vt 0.250000 0.000000
vt 0.500000 1.000000
vt 0.250000 1.000000
vt 0.375000 1.000000
vt 0.421875 1.000000
vt 0.398438 1.000000
vt 1.000000 0.000000
vt 1.000000 1.000000
vt 0.000000 0.000000
vt 0.000000 1.000000
vt 0.500000 0.000000
vt 0.250000 0.000000
vt 0.500000 1.000000
vt 0.250000 1.000000
vt 0.375000 1.000000
vt 0.421875 1.000000
vt 0.398438 1.000000
s 0
f 16/21/1 17/23/1 24/34/1 23/33/1
f 38/53/2 39/54/2 13/16/2 4/4/2 2/2/2
f 1/1/3 2/2/3 8/9/3 7/8/3
f 3/3/4 1/1/4 9/10/4 10/11/4
f 2/2/5 4/4/5 12/15/5 11/13/5
f 7/8/6 8/9/6 17/22/6 16/21/6
f 10/11/7 9/10/7 18/24/7 19/26/7
f 34/48/8 35/49/8 6/7/8 4/4/8
f 11/13/9 12/15/9 21/29/9 20/27/9
f 7/8/10 16/21/10 23/33/10 18/24/10 9/10/10 1/1/10
f 28/40/11 29/41/11 5/5/11 14/17/11
f 10/12/12 19/25/12 22/31/12 14/18/12 5/5/12 3/3/12
f 2/2/2 42/57/2 38/53/2
f 6/6/13 15/19/13 25/35/13 21/30/13 12/15/13 4/4/13
f 17/23/14 8/9/14 2/2/14 11/14/14 20/28/14 24/34/14
f 25/35/15 24/34/15 20/28/15 21/30/15
f 23/33/16 24/34/16 25/35/16 37/52/16 27/37/16 22/32/16
f 22/32/17 19/26/17 18/24/17 23/33/17
f 22/32/18 27/37/18 28/39/18 14/18/18
f 45/60/2 3/3/2 30/43/2 46/61/2
f 26/36/2 4/4/2 13/16/2
f 28/39/19 27/38/19 31/44/19
f 29/41/20 30/42/20 3/3/20 5/5/20
f 4/4/21 26/36/21 33/47/21 34/48/21
f 40/55/2 1/1/2 3/3/2 41/56/2
f 31/45/22 32/46/22 29/41/22 28/40/22
f 32/46/23 30/42/23 29/41/23
f 31/44/24 27/38/24 37/52/24 36/51/24
f 36/50/25 35/49/25 32/46/25 31/45/25
f 35/49/26 34/48/26 30/43/26 32/46/26
f 38/53/27 42/57/27 53/68/27 49/64/27
f 6/7/11 35/49/11 36/51/11 15/20/11
f 15/20/28 36/51/28 37/52/28 25/35/28
f 46/61/29 30/43/29 48/63/29
f 43/58/2 1/1/2 40/55/2
f 48/63/30 30/43/30 34/48/30 33/47/30 47/62/30
f 26/36/2 13/16/2 39/54/2 44/59/2
f 33/47/2 26/36/2 44/59/2 47/62/2
f 58/73/31 55/70/31 50/65/31 49/64/31 53/68/31 54/69/31 51/66/31 52/67/31 56/71/31 57/72/31 59/74/31
f 46/61/32 48/63/32 59/74/32 57/72/32
f 43/58/33 40/55/33 51/66/33 54/69/33
f 45/60/6 46/61/6 57/72/6 56/71/6
f 48/63/34 47/62/34 58/73/34 59/74/34
f 41/56/35 45/60/35 56/71/35 52/67/35
f 42/57/11 43/58/11 54/69/11 53/68/11
f 40/55/9 41/56/9 52/67/9 51/66/9
f 39/54/7 38/53/7 49/64/7 50/65/7
f 47/62/6 44/59/6 55/70/6 58/73/6
f 44/59/36 39/54/36 50/65/36 55/70/36
f 42/57/2 2/2/2 1/1/2 43/58/2
f 3/3/2 45/60/2 41/56/2
f 75/95/37 82/107/37 83/108/37 76/97/37
f 97/127/38 61/76/38 63/78/38 72/90/38 98/128/38
f 60/75/39 66/82/39 67/83/39 61/76/39
f 62/77/40 69/85/40 68/84/40 60/75/40
f 61/76/41 70/87/41 71/89/41 63/78/41
f 66/82/42 75/95/42 76/96/42 67/83/42
f 69/85/43 78/100/43 77/98/43 68/84/43
f 93/122/44 63/78/44 65/81/44 94/123/44
f 70/87/45 79/101/45 80/103/45 71/89/45
f 66/82/46 60/75/46 68/84/46 77/98/46 82/107/46 75/95/46
f 87/114/47 73/91/47 64/79/47 88/115/47
f 69/86/48 62/77/48 64/79/48 73/92/48 81/105/48 78/99/48
f 61/76/49 97/127/49 101/131/49
f 65/80/50 63/78/50 71/89/50 80/104/50 84/109/50 74/93/50
f 76/97/51 83/108/51 79/102/51 70/88/51 61/76/51 67/83/51
f 84/109/52 80/104/52 79/102/52 83/108/52
f 82/107/53 81/106/53 86/111/53 96/126/53 84/109/53 83/108/53
f 81/106/54 82/107/54 77/98/54 78/100/54
f 81/106/55 73/92/55 87/113/55 86/111/55
f 104/134/56 105/135/56 89/117/56 62/77/56
f 85/110/57 72/90/57 63/78/57
f 87/113/58 90/118/58 86/112/58
f 88/115/59 64/79/59 62/77/59 89/116/59
f 63/78/60 93/122/60 92/121/60 85/110/60
f 99/129/61 100/130/61 62/77/61 60/75/61
f 90/119/62 87/114/62 88/115/62 91/120/62
f 91/120/63 88/115/63 89/116/63
f 90/118/64 95/125/64 96/126/64 86/112/64
f 95/124/65 90/119/65 91/120/65 94/123/65
f 94/123/66 91/120/66 89/117/66 93/122/66
f 97/127/67 108/138/67 112/142/67 101/131/67
f 65/81/68 74/94/68 95/125/68 94/123/68
f 74/94/69 84/109/69 96/126/69 95/125/69
f 105/135/70 107/137/70 89/117/70
f 102/132/71 99/129/71 60/75/71
f 107/137/72 106/136/72 92/121/72 93/122/72 89/117/72
f 85/110/73 103/133/73 98/128/73 72/90/73
f 92/121/74 106/136/74 103/133/74 85/110/74
f 117/147/75 118/148/75 116/146/75 115/145/75 111/141/75 110/140/75 113/143/75 112/142/75 108/138/75 109/139/75 114/144/75
f 105/135/76 116/146/76 118/148/76 107/137/76
f 102/132/77 113/143/77 110/140/77 99/129/77
f 104/134/78 115/145/78 116/146/78 105/135/78
f 107/137/79 118/148/79 117/147/79 106/136/79
f 100/130/80 111/141/80 115/145/80 104/134/80
f 101/131/81 112/142/81 113/143/81 102/132/81
f 99/129/82 110/140/82 111/141/82 100/130/82
f 98/128/83 109/139/83 108/138/83 97/127/83
f 106/136/84 117/147/84 114/144/84 103/133/84
f 103/133/85 114/144/85 109/139/85 98/128/85
f 101/131/86 102/132/86 60/75/86 61/76/86
f 62/77/87 100/130/87 104/134/87
